<svg width="46" height="46" viewBox="0 0 46 46" fill="none" xmlns="http://www.w3.org/2000/svg">
<g clip-path="url(#clip0_1_2)">
<path d="M34.4517 30.0097C34.0074 30.4418 33.949 30.9584 33.6338 31.3397C33.3893 31.6334 32.8834 31.8486 32.6113 32.1146C32.0055 32.7035 31.781 33.4031 31.3674 34.0704C30.8354 34.9284 30.1081 34.8284 29.2502 35.1975C28.2677 35.6203 27.5158 36.1677 26.4272 36.4075C25.1495 36.6889 24.21 36.2707 22.9785 36.286C22.079 36.2968 21.2518 36.6258 20.2724 36.5444C18.6195 36.406 17.9553 35.7187 16.6422 35.0898C16.1717 34.8638 15.6858 34.8423 15.2322 34.6593C14.362 34.3072 14.3512 33.44 13.8546 32.7942C13.5609 32.4129 13.1242 32.2069 12.8183 31.8148C12.4985 31.4028 12.4139 30.9261 12.154 30.5509C11.4452 29.53 9.09122 28.7643 9.36952 27.1529C9.44025 26.7439 9.76621 26.3273 9.91689 25.9475C10.2444 25.1157 10.2398 21.9821 10.1383 20.995C10.0507 20.154 9.39412 19.0838 9.76621 18.169C10.0307 17.5171 11.5482 17.0773 11.8942 16.5269C12.1956 16.0487 12.0111 15.2753 12.0772 14.7356C12.5246 14.588 13.2918 14.6434 13.6516 14.3374C13.9299 14.1006 14.1544 13.2749 14.3989 12.8921C14.9924 11.9649 15.6981 12.0603 16.6253 11.7005C17.0127 11.5498 17.4909 11.19 17.8522 11.0854C18.2136 10.9809 18.6825 10.9993 19.0684 10.8994C19.6435 10.7502 20.5599 10.3028 21.0657 10.2582C21.4317 10.2275 21.8345 10.4104 22.1958 10.4289C23.7826 10.5135 25.3786 9.94918 26.8823 10.4766C27.3836 10.6518 27.934 10.9747 28.466 11.1731C29.6576 11.6144 30.288 11.4652 31.2244 12.5338C31.9532 13.3656 31.9686 14.0991 33.134 14.5695C33.3954 14.6756 33.706 14.6264 33.9397 14.8156C34.1842 15.426 33.9828 16.0133 34.4364 16.5991C34.8899 17.1849 35.7187 17.3587 36.0508 17.7031C36.3291 17.9922 36.3137 19.4329 36.2568 19.848C36.1999 20.2631 35.8771 20.6168 35.8263 21.0827C35.7187 22.0713 35.7294 24.2931 35.8232 25.294C35.9216 26.3565 36.7581 27.7341 35.9601 28.7551C35.5926 29.2256 34.8715 29.6069 34.4548 30.0113L34.4517 30.0097ZM22.6556 12.1202C14.5849 12.5661 10.7503 18.7225 12.1786 26.4026C12.7706 29.5823 15.6474 33.1217 18.7978 34.075C23.2352 35.4173 27.9325 34.6793 31.1352 31.2075C33.7937 28.3261 34.2703 25.866 33.9812 21.9591C33.5523 16.1394 28.4599 11.7989 22.6556 12.1202Z" fill="url(#paint0_linear_1_2)"/>
<path d="M40.0977 19.9172C43.7171 19.3514 45.413 23.9225 42.4286 26.0182C39.8532 27.8264 36.5351 24.5406 37.736 21.8514C38.1265 20.9766 39.1321 20.0679 40.0977 19.9172ZM40.5359 21.7592C40.1376 21.8622 39.5841 22.6248 39.5118 23.0138C39.312 24.0947 40.4252 25.0004 41.3431 24.4084C42.6316 23.5781 42.1042 21.3517 40.5359 21.7607V21.7592Z" fill="url(#paint1_linear_1_2)"/>
<path d="M22.651 2.03229C25.1464 1.63868 27.2375 4.89369 25.9552 6.91558C23.9056 10.1445 19.6081 8.18253 19.8695 4.77376C19.9679 3.49144 21.4255 2.22449 22.651 2.03229ZM23 3.96039C22.7678 4.00191 22.2727 4.30481 22.1113 4.47394C21.1042 5.53639 22.5433 7.0924 23.7549 6.38205C25.0388 5.62864 24.373 3.71131 22.9985 3.96039H23Z" fill="url(#paint2_linear_1_2)"/>
<path d="M22.7386 37.9774C25.7568 37.5422 27.4358 41.2124 25.3509 43.3957C22.9815 45.8773 19.8987 44.1307 19.8649 40.9771C19.8526 39.7809 21.587 38.1434 22.7371 37.9774H22.7386ZM23.0907 39.8178C21.6208 40.05 21.3118 42.1749 22.6833 42.813C23.5827 43.2312 24.4345 42.0642 24.4345 41.2447C24.4345 40.5958 23.7949 39.7071 23.0907 39.8178Z" fill="url(#paint3_linear_1_2)"/>
<path d="M2.73803 21.178C4.11261 19.6789 6.05301 19.2099 7.55059 20.8597C8.33321 21.7207 8.55 22.7155 8.25633 23.8472C8.03953 24.6867 6.80795 26.0213 5.99766 26.3227C5.35649 26.561 3.9404 26.3811 3.35459 26.0213C2.85335 25.7138 2.14761 24.0394 2.08149 23.4367C1.96002 22.3173 2.01384 21.9698 2.73803 21.1795V21.178ZM6.15602 21.9514C5.13816 21.2195 3.65749 22.0713 3.8297 23.266C3.90657 23.7949 4.62923 24.8282 5.22734 24.6821C6.2821 24.4222 7.14314 22.6633 6.15602 21.9529V21.9514Z" fill="url(#paint4_linear_1_2)"/>
<path d="M35.0145 6.59269C35.9585 6.44508 36.8596 6.91711 37.5714 7.49831C38.1219 7.94882 38.3079 8.24864 38.371 8.97744C38.5078 10.5627 38.1557 12.1479 36.572 12.7952C31.7164 14.7802 31.066 7.20925 35.016 6.59269H35.0145ZM35.0975 8.43007C33.7552 8.73912 34.0474 12.0756 35.8894 11.2377C37.3423 10.575 36.7827 8.04261 35.0975 8.43007Z" fill="url(#paint5_linear_1_2)"/>
<path d="M33.42 33.9751C34.3718 33.0971 35.302 33.0295 36.5213 33.4462C37.7852 33.8767 38.2695 34.8084 38.4448 36.0815C38.6631 37.6575 38.394 38.9814 36.715 39.5072C33.377 40.5528 31.0522 36.1584 33.42 33.9766V33.9751ZM34.8869 37.6668C35.8771 38.4971 36.7858 37.2501 36.7027 36.2476C36.5536 34.4809 34.3426 34.5086 34.2457 36.2507C34.2165 36.7688 34.4963 37.3393 34.8869 37.6668Z" fill="url(#paint6_linear_1_2)"/>
<path d="M10.1137 6.67879C11.0931 6.52503 12.726 6.98015 13.278 7.85502C13.7362 8.58229 13.79 10.5903 13.4856 11.3653C13.2703 11.9111 12.314 12.8967 11.7389 13.0381C7.89654 13.9837 5.92232 7.33687 10.1137 6.67879ZM10.0799 8.61765C9.01896 9.57709 10.1352 12.2002 11.659 11.1162C13.0305 10.1414 11.2884 7.52445 10.0799 8.61765Z" fill="url(#paint7_linear_1_2)"/>
<path d="M4.67074 17.4986C4.48777 17.6908 2.6919 18.8624 2.59811 18.7563C2.52431 18.4411 2.81029 18.2874 2.85642 18.0075C2.93176 17.537 2.81183 17.0835 2.99326 16.5668C3.60214 14.8294 6.28672 15.7996 4.67074 17.4986Z" fill="#FFD700"/>
<path d="M41.4092 15.795C42.2825 15.5966 43.2942 15.8903 43.1651 16.9374C43.059 17.8092 42.6654 18.2151 41.7459 18.0506C40.6604 17.8569 40.2991 16.0471 41.4092 15.795Z" fill="#FFD700"/>
<path d="M16.6453 4.97057C16.4592 4.79529 16.2378 3.99115 16.267 3.719C16.3301 3.11474 17.8953 2.46743 18.4703 2.66423C18.5949 2.75034 18.578 3.77281 18.5472 3.97885C18.4365 4.69535 17.2034 5.49642 16.6453 4.97057Z" fill="#FFD700"/>
<path d="M37.1947 30.6924C37.9681 30.4971 39.744 31.0291 39.7763 31.9547C39.7963 32.5098 38.9137 33.0587 38.3679 32.8265C38.2849 32.7912 37.1594 31.6365 37.1179 31.535C37.0364 31.3336 36.9549 30.7724 37.1947 30.6924Z" fill="#FFD700"/>
<path d="M28.5306 2.82106C28.9811 2.78723 29.5285 3.1747 29.5961 3.63904C29.6469 3.98807 29.3101 5.09357 28.9227 5.15046C28.4968 5.2135 27.4681 4.5216 27.4097 4.06341C27.3205 3.35613 27.8618 2.8718 28.5306 2.82106Z" fill="#FFD700"/>
<path d="M40.3252 13.6409C39.9085 13.2534 39.335 11.8266 39.6994 11.3238C40.0638 11.0962 40.6158 11.2869 40.7142 11.7174C40.7526 11.885 40.6927 12.1602 40.7711 12.274C40.8818 12.4354 41.8397 12.4047 41.9566 13.2842C42.0657 14.0929 40.7834 14.0668 40.3252 13.6409Z" fill="#FFD700"/>
<path d="M8.10104 30.5233C9.86154 30.3834 9.30956 32.6359 8.24403 32.6958C7.67975 32.7266 6.78489 31.6411 7.02475 31.1214C7.1539 30.8431 7.80121 30.5479 8.10104 30.5233Z" fill="#FFD700"/>
<path d="M29.2179 42.1949C29.7176 42.7038 29.5485 43.7248 28.8704 44.0215C27.5927 44.5827 26.827 42.8929 27.851 42.2133C28.2354 41.9581 28.8612 41.832 29.2179 42.1934V42.1949Z" fill="#FFD700"/>
<path d="M14.0068 41.0986C14.1452 41.1816 14.5634 40.9941 14.7356 41.3769C14.9724 41.8997 14.4235 41.9427 13.9976 42.0365C13.195 42.2133 11.6159 42.324 12.048 41.0494C12.1909 40.6281 12.9936 40.2145 13.3764 40.3667C13.7593 40.5189 13.9638 41.074 14.0068 41.0986Z" fill="#FFD700"/>
<path d="M37.7267 14.0406C39.0398 13.7377 40.1361 15.3783 38.2249 15.8534C37.7114 15.981 37.1163 16.0625 36.9134 15.4291C36.7734 14.9893 37.2716 14.1467 37.7267 14.0406Z" fill="#FFD700"/>
<path d="M6.68956 11.333C7.05396 11.7297 6.80949 12.4339 6.50198 12.7983C6.23136 13.1181 5.07358 13.8807 4.73839 13.4133C4.84602 12.6722 5.26731 11.0685 6.23598 11.1223C6.37282 11.13 6.60038 11.2346 6.69109 11.333H6.68956Z" fill="#FFD700"/>
<path d="M5.02438 29.5085C5.38878 29.9052 5.14431 30.6094 4.8368 30.9738C4.56619 31.2936 3.40841 32.0562 3.07322 31.5888C3.18085 30.8477 3.60214 29.244 4.5708 29.2978C4.70764 29.3055 4.9352 29.4101 5.02592 29.5085H5.02438Z" fill="#FFD700"/>
<path d="M32.3776 4.231C32.5144 4.38015 32.6712 5.00132 32.662 5.20582C32.6051 6.43125 30.84 6.07607 30.6755 5.36572C30.6001 5.0413 30.7216 4.35247 30.9615 4.11876C31.2675 3.82047 32.0977 3.92503 32.3776 4.231Z" fill="#FFD700"/>
<path d="M13.1842 4.0465C14.5603 3.82355 15.1384 5.82238 13.5747 5.9377C13.1412 5.96998 12.174 5.47181 12.2555 4.97057C12.3139 4.61232 12.8198 4.10492 13.1842 4.0465Z" fill="#FFD700"/>
<path d="M42.6377 28.9503C43.4126 29.7253 42.1933 31.5826 41.0848 30.371C40.1761 29.3778 41.8997 28.2123 42.6377 28.9503Z" fill="#FFD700"/>
<path d="M7.92422 14.1267C9.41719 13.9115 9.43103 16.4792 7.70588 15.9703C6.5235 15.6212 7.07241 14.2497 7.92422 14.1267Z" fill="#FFD700"/>
<path d="M29.6607 7.37685C30.2219 7.20771 31.2767 7.74279 31.2598 8.35627C31.2536 8.56384 31.0214 9.32493 30.8262 9.42026C30.4787 9.58939 29.613 9.07739 29.4685 8.75911C29.3578 8.51618 29.3271 7.47525 29.6592 7.37531L29.6607 7.37685Z" fill="#FFD700"/>
<path d="M30.4541 37.4515C31.4581 37.2778 31.6441 38.2387 31.4012 39.0137C31.2275 39.5703 30.2603 39.6395 30.0389 39.0521C29.8221 38.4724 29.6622 37.5899 30.4525 37.453L30.4541 37.4515Z" fill="#FFD700"/>
<path d="M31.2429 40.7849C32.6359 40.4282 32.9618 42.2564 31.9717 42.5639C30.7216 42.9529 30.3203 41.0202 31.2429 40.7849Z" fill="#FFD700"/>
<path d="M16.5561 41.0771C17.9491 40.7204 18.2751 42.5485 17.2849 42.856C16.0348 43.245 15.6335 41.3123 16.5561 41.0771Z" fill="#FFD700"/>
<path d="M29.0534 39.4257C28.9196 39.561 28.3522 39.5595 28.1508 39.5364C27.1545 39.4196 27.2944 37.7221 28.5029 37.7759C29.2194 37.8082 29.4239 39.0552 29.0534 39.4257Z" fill="#FFD700"/>
<path d="M38.8691 27.2821C39.049 27.2483 39.4457 27.2144 39.5949 27.3036C40.2007 28.1062 39.784 29.7253 38.6001 28.9119C38.025 28.5168 38.1757 27.4143 38.8691 27.2821Z" fill="#FFD700"/>
<path d="M37.9866 17.2803C38.1173 17.2357 38.6908 17.2418 38.8445 17.271C39.7502 17.4386 39.9039 19.2038 38.5001 18.9301C37.9205 18.8178 37.5253 17.4386 37.9866 17.2803Z" fill="#FFD700"/>
<path d="M17.5155 37.7083C18.8578 37.3746 19.2852 39.8393 17.7277 39.6195C16.9113 39.5042 17.2249 38.2095 17.5155 37.7083Z" fill="#FFD700"/>
<path d="M15.1953 37.7975C16.9943 37.2562 16.5453 40.2483 15.0723 39.3781C14.5665 39.0798 14.7694 37.9266 15.1953 37.7975Z" fill="#FFD700"/>
<path d="M17.823 7.45987C18.6226 7.19079 19.4421 8.56845 18.4949 9.18501C17.8753 9.58785 17.3987 9.17886 17.3418 8.52078C17.3264 8.34396 17.66 7.51522 17.823 7.45987Z" fill="#FFD700"/>
<path d="M40.1853 34.0305C41.4861 33.7721 40.9249 36.4383 39.8532 35.7264C39.1336 35.2482 39.3427 34.1996 40.1853 34.0305Z" fill="#FFD700"/>
<path d="M15.5474 7.81659C15.9995 7.67975 16.5269 7.93191 16.4515 8.45161C16.4208 8.66686 15.5336 9.39413 15.366 9.36338C14.7172 9.08969 15.0262 7.97496 15.5459 7.81813L15.5474 7.81659Z" fill="#FFD700"/>
<path d="M7.65361 17.3817C8.36396 18.1613 7.14775 19.0546 6.50044 18.4042C6.13604 18.0383 7.02936 16.6975 7.65361 17.3817Z" fill="#FFD700"/>
<path d="M41.4061 32.5359C41.6844 32.4391 42.0304 32.5298 42.1795 32.7865C42.5531 33.6153 40.7665 34.3994 40.8203 33.5369C40.8311 33.3739 41.2616 32.5851 41.4061 32.5359Z" fill="#FFD700"/>
<path d="M6.69417 27.9755C7.54751 27.811 7.77507 29.1364 6.92942 29.2763C6.18062 29.3993 5.8685 28.1354 6.69417 27.9755Z" fill="#FFD700"/>
<path d="M2.95482 26.5164C3.45146 26.4887 3.02094 28.1616 2.36594 27.9586C1.52643 27.6988 2.30751 26.5518 2.95482 26.5164Z" fill="#FFD700"/>
<path d="M44.0461 27.0176C44.5627 27.4789 43.0052 27.9709 42.9221 27.2129C42.8683 26.7209 43.837 26.83 44.0461 27.0176Z" fill="#FFD700"/>
<path d="M27.8541 8.40394C27.6157 8.04415 28.4353 7.60902 28.6213 8.12256C28.7797 8.67762 27.9217 8.50541 27.8541 8.40394Z" fill="#FFD700"/>
<path d="M34.2334 40.9495C34.3026 41.0571 34.2611 41.3738 34.115 41.4615L33.7214 41.0678C33.6845 40.7865 34.1642 40.8403 34.2334 40.951V40.9495Z" fill="#FFD700"/>
<path d="M8.2548 34.5686C9.62937 33.0695 11.5698 32.6005 13.0674 34.2503C13.85 35.1114 14.0668 36.1062 13.7731 37.2378C13.5563 38.0773 12.3247 39.4119 11.5144 39.7133C10.8733 39.9516 9.45717 39.7717 8.87136 39.4119C8.37011 39.1044 7.66437 37.43 7.59826 36.8273C7.47679 35.7079 7.5306 35.3604 8.2548 34.5701V34.5686ZM11.6713 35.342C10.6534 34.6101 9.17272 35.4619 9.34492 36.6566C9.4218 37.1855 10.1445 38.2188 10.7426 38.0727C11.7973 37.8128 12.6584 36.0539 11.6713 35.3435V35.342Z" fill="url(#paint8_linear_1_2)"/>
<path d="M16.8313 30.9999C15.3752 29.6484 14.2513 26.9085 13.8623 24.9819C12.7568 19.5067 16.4208 14.5865 21.9298 13.9361C32.6097 12.6753 36.469 27.6849 26.7655 32.273C23.9979 33.583 19.1223 33.1279 16.8298 30.9999H16.8313ZM28.3353 28.4506C32.0132 24.1286 29.8329 16.3823 23.6857 16.1225C17.1557 15.8473 14.2682 22.1497 17.1926 27.6127C19.356 31.6534 25.5416 31.7333 28.3353 28.4506Z" fill="#FFD700"/>
<path d="M19.7234 27.8433C17.1019 25.2172 16.8528 20.7183 20.3139 18.7194C25.4831 15.7335 30.5479 21.4701 27.5988 26.4426C26.0597 29.0365 22.0006 30.1235 19.725 27.8433H19.7234ZM22.8293 20.0094C21.9421 20.1171 21.1503 20.6998 20.6106 21.3856C18.4596 24.1116 21.344 28.6859 24.7697 26.3334C27.5173 24.4468 26.3765 19.5774 22.8293 20.0094Z" fill="url(#paint9_linear_1_2)"/>
<path d="M22.8262 21.67C24.9727 21.2871 25.1925 24.5975 23.3229 24.8005C21.4532 25.0034 21.0504 21.9867 22.8262 21.67Z" fill="#FFD700"/>
</g>
<defs>
<linearGradient id="paint0_linear_1_2" x1="9.34646" y1="23.4013" x2="36.2999" y2="23.4013" gradientUnits="userSpaceOnUse">
<stop stop-color="#FF8500"/>
<stop offset="0.28" stop-color="#FE7706"/>
<stop offset="0.81" stop-color="#FA5117"/>
<stop offset="1" stop-color="#F9421E"/>
</linearGradient>
<linearGradient id="paint1_linear_1_2" x1="37.4823" y1="23.2029" x2="43.96" y2="23.2029" gradientUnits="userSpaceOnUse">
<stop stop-color="#FCEE21"/>
<stop offset="1" stop-color="#EB7FDC"/>
</linearGradient>
<linearGradient id="paint2_linear_1_2" x1="19.8588" y1="5.27962" x2="26.3442" y2="5.27962" gradientUnits="userSpaceOnUse">
<stop stop-color="#FCEE21"/>
<stop offset="1" stop-color="#EB7FDC"/>
</linearGradient>
<linearGradient id="paint3_linear_1_2" x1="19.8649" y1="41.257" x2="26.2765" y2="41.257" gradientUnits="userSpaceOnUse">
<stop stop-color="#FCEE21"/>
<stop offset="1" stop-color="#EB7FDC"/>
</linearGradient>
<linearGradient id="paint4_linear_1_2" x1="2.03075" y1="23.1261" x2="8.38241" y2="23.1261" gradientUnits="userSpaceOnUse">
<stop stop-color="#FCEE21"/>
<stop offset="1" stop-color="#EB7FDC"/>
</linearGradient>
<linearGradient id="paint5_linear_1_2" x1="32.4391" y1="9.84616" x2="38.3971" y2="9.84616" gradientUnits="userSpaceOnUse">
<stop stop-color="#3CCE92"/>
<stop offset="0.15" stop-color="#38C090"/>
<stop offset="0.42" stop-color="#2D9A8B"/>
<stop offset="0.8" stop-color="#1B5D83"/>
<stop offset="1" stop-color="#113B7F"/>
</linearGradient>
<linearGradient id="paint6_linear_1_2" x1="32.4544" y1="36.4306" x2="38.5109" y2="36.4306" gradientUnits="userSpaceOnUse">
<stop stop-color="#3CCE92"/>
<stop offset="0.15" stop-color="#38C090"/>
<stop offset="0.42" stop-color="#2D9A8B"/>
<stop offset="0.8" stop-color="#1B5D83"/>
<stop offset="1" stop-color="#113B7F"/>
</linearGradient>
<linearGradient id="paint7_linear_1_2" x1="7.76893" y1="9.88921" x2="13.6778" y2="9.88921" gradientUnits="userSpaceOnUse">
<stop stop-color="#3CCE92"/>
<stop offset="0.15" stop-color="#38C090"/>
<stop offset="0.42" stop-color="#2D9A8B"/>
<stop offset="0.8" stop-color="#1B5D83"/>
<stop offset="1" stop-color="#113B7F"/>
</linearGradient>
<linearGradient id="paint8_linear_1_2" x1="7.54752" y1="36.5151" x2="13.8976" y2="36.5151" gradientUnits="userSpaceOnUse">
<stop stop-color="#3CCE92"/>
<stop offset="0.15" stop-color="#38C090"/>
<stop offset="0.42" stop-color="#2D9A8B"/>
<stop offset="0.8" stop-color="#1B5D83"/>
<stop offset="1" stop-color="#113B7F"/>
</linearGradient>
<linearGradient id="paint9_linear_1_2" x1="17.7354" y1="23.492" x2="28.4691" y2="23.492" gradientUnits="userSpaceOnUse">
<stop stop-color="#FF8500"/>
<stop offset="0.28" stop-color="#FE7706"/>
<stop offset="0.81" stop-color="#FA5117"/>
<stop offset="1" stop-color="#F9421E"/>
</linearGradient>
<clipPath id="clip0_1_2">
<rect width="46" height="46" fill="white"/>
</clipPath>
</defs>
</svg>
