<svg width="171" height="43" viewBox="0 0 171 43" fill="none" xmlns="http://www.w3.org/2000/svg">
<g clip-path="url(#clip0_0_2228)">
<path d="M32.4517 28.2576C32.0074 28.6896 31.949 29.2063 31.6338 29.5876C31.3893 29.8813 30.8834 30.0965 30.6113 30.3625C30.0055 30.9514 29.781 31.651 29.3674 32.3183C28.8354 33.1762 28.1081 33.0763 27.2502 33.4453C26.2677 33.8681 25.5158 34.4155 24.4272 34.6554C23.1495 34.9367 22.21 34.5185 20.9785 34.5339C20.079 34.5447 19.2518 34.8737 18.2724 34.7922C16.6195 34.6538 15.9553 33.9665 14.6422 33.3377C14.1717 33.1117 13.6858 33.0901 13.2322 32.9072C12.362 32.5551 12.3512 31.6879 11.8546 31.0421C11.5609 30.6608 11.1242 30.4548 10.8183 30.0627C10.4985 29.6506 10.4139 29.174 10.154 28.7988C9.44523 27.7779 7.09122 27.0122 7.36952 25.4008C7.44025 24.9918 7.76621 24.5751 7.91689 24.1954C8.24439 23.3635 8.23978 20.23 8.1383 19.2429C8.05066 18.4018 7.39412 17.3317 7.76621 16.4168C8.03067 15.7649 9.54824 15.3252 9.8942 14.7747C10.1956 14.2965 10.011 13.5232 10.0772 12.9835C10.5246 12.8359 11.2918 12.8912 11.6516 12.5852C11.9299 12.3485 12.1544 11.5228 12.3989 11.1399C12.9924 10.2128 13.6981 10.3081 14.6253 9.94833C15.0127 9.79765 15.4909 9.43786 15.8522 9.3333C16.2136 9.22875 16.6825 9.2472 17.0684 9.14726C17.6435 8.99812 18.5599 8.55069 19.0657 8.5061C19.4317 8.47534 19.8345 8.65831 20.1958 8.67677C21.7826 8.76133 23.3786 8.19705 24.8823 8.72443C25.3836 8.89971 25.934 9.2226 26.466 9.42094C27.6576 9.86222 28.288 9.71308 29.2244 10.7817C29.9532 11.6135 29.9686 12.3469 31.134 12.8174C31.3954 12.9235 31.706 12.8743 31.9397 13.0634C32.1842 13.6738 31.9828 14.2612 32.4364 14.847C32.8899 15.4328 33.7187 15.6065 34.0508 15.951C34.3291 16.24 34.3137 17.6807 34.2568 18.0959C34.1999 18.511 33.8771 18.8646 33.8263 19.3305C33.7187 20.3192 33.7294 22.5409 33.8232 23.5419C33.9216 24.6043 34.7581 25.982 33.9601 27.0029C33.5926 27.4734 32.8715 27.8547 32.4548 28.2591L32.4517 28.2576ZM20.6556 10.3681C12.5849 10.814 8.75025 16.9704 10.1786 24.6505C10.7706 27.8301 13.6474 31.3696 16.7978 32.3229C21.2352 33.6652 25.9325 32.9272 29.1352 29.4553C31.7937 26.574 32.2703 24.1139 31.9812 20.2069C31.5523 14.3873 26.4599 10.0467 20.6556 10.3681Z" fill="url(#paint0_linear_0_2228)"/>
<path d="M38.0977 18.165C41.7171 17.5992 43.413 22.1704 40.4286 24.2661C37.8532 26.0743 34.5351 22.7885 35.736 20.0993C36.1265 19.2244 37.1321 18.3157 38.0977 18.165ZM38.5359 20.007C38.1376 20.1101 37.5841 20.8727 37.5118 21.2617C37.312 22.3426 38.4252 23.2482 39.3431 22.6563C40.6316 21.826 40.1042 19.5996 38.5359 20.0086V20.007Z" fill="url(#paint1_linear_0_2228)"/>
<path d="M20.651 0.280152C23.1464 -0.113463 25.2375 3.14155 23.9552 5.16344C21.9056 8.39232 17.6081 6.43039 17.8695 3.02162C17.9679 1.7393 19.4255 0.472347 20.651 0.280152ZM21 2.20825C20.7678 2.24977 20.2727 2.55267 20.1113 2.7218C19.1042 3.78425 20.5433 5.34026 21.7549 4.62991C23.0388 3.8765 22.373 1.95917 20.9984 2.20825H21Z" fill="url(#paint2_linear_0_2228)"/>
<path d="M20.7386 36.2252C23.7568 35.7901 25.4358 39.4602 23.3509 41.6436C20.9815 44.1252 17.8987 42.3785 17.8649 39.225C17.8526 38.0288 19.587 36.3913 20.7371 36.2252H20.7386ZM21.0907 38.0657C19.6208 38.2979 19.3117 40.4228 20.6833 41.0608C21.5827 41.4791 22.4345 40.3121 22.4345 39.4925C22.4345 38.8437 21.7949 37.955 21.0907 38.0657Z" fill="url(#paint3_linear_0_2228)"/>
<path d="M0.738026 19.4258C2.1126 17.9267 4.053 17.4578 5.55059 19.1076C6.3332 19.9686 6.55 20.9634 6.25633 22.095C6.03953 22.9346 4.80795 24.2692 3.99765 24.5705C3.35649 24.8088 1.9404 24.6289 1.35459 24.2692C0.853343 23.9616 0.147603 22.2872 0.0814877 21.6845C-0.0399795 20.5652 0.0138351 20.2177 0.738026 19.4274V19.4258ZM4.15602 20.1992C3.13816 19.4674 1.65749 20.3192 1.82969 21.5139C1.90657 22.0428 2.62922 23.076 3.22733 22.9299C4.2821 22.6701 5.14313 20.9111 4.15602 20.2008V20.1992Z" fill="url(#paint4_linear_0_2228)"/>
<path d="M33.0145 4.84056C33.9585 4.69295 34.8596 5.16498 35.5714 5.74618C36.1219 6.19668 36.3079 6.49651 36.371 7.22531C36.5078 8.81054 36.1557 10.3958 34.572 11.0431C29.7164 13.0281 29.066 5.45712 33.016 4.84056H33.0145ZM33.0975 6.67794C31.7552 6.98699 32.0474 10.3235 33.8893 9.48552C35.3423 8.82284 34.7827 6.29047 33.0975 6.67794Z" fill="url(#paint5_linear_0_2228)"/>
<path d="M31.42 32.223C32.3718 31.345 33.302 31.2774 34.5213 31.694C35.7852 32.1246 36.2695 33.0563 36.4448 34.3294C36.6631 35.9054 36.394 37.2292 34.715 37.7551C31.377 38.8006 29.0522 34.4063 31.42 32.2245V32.223ZM32.8869 35.9146C33.8771 36.7449 34.7858 35.498 34.7027 34.4955C34.5536 32.7288 32.3426 32.7565 32.2457 34.4985C32.2165 35.0167 32.4963 35.5871 32.8869 35.9146Z" fill="url(#paint6_linear_0_2228)"/>
<path d="M8.1137 4.92666C9.09313 4.7729 10.726 5.22802 11.278 6.10289C11.7362 6.83016 11.79 8.83821 11.4856 9.61314C11.2703 10.159 10.314 11.1445 9.7389 11.286C5.89654 12.2316 3.92232 5.58473 8.1137 4.92666ZM8.07988 6.86552C7.01896 7.82496 8.13523 10.448 9.65895 9.36405C11.0305 8.38924 9.2884 5.77232 8.07988 6.86552Z" fill="url(#paint7_linear_0_2228)"/>
<path d="M2.67074 15.7465C2.48777 15.9387 0.691899 17.1103 0.598108 17.0042C0.524305 16.689 0.810291 16.5352 0.856418 16.2554C0.931759 15.7849 0.811829 15.3313 0.993261 14.8147C1.60213 13.0773 4.28671 14.0475 2.67074 15.7465Z" fill="#FFD700"/>
<path d="M39.4092 14.0429C40.2825 13.8445 41.2942 14.1382 41.1651 15.1853C41.059 16.0571 40.6654 16.463 39.7459 16.2985C38.6604 16.1047 38.2991 14.295 39.4092 14.0429Z" fill="#FFD700"/>
<path d="M14.6453 3.21843C14.4592 3.04315 14.2378 2.239 14.267 1.96686C14.3301 1.36259 15.8953 0.715282 16.4703 0.912089C16.5949 0.998192 16.578 2.02067 16.5472 2.2267C16.4365 2.94321 15.2034 3.74427 14.6453 3.21843Z" fill="#FFD700"/>
<path d="M35.1947 28.9403C35.9681 28.745 37.744 29.277 37.7763 30.2026C37.7963 30.7577 36.9137 31.3066 36.3679 31.0744C36.2849 31.039 35.1594 29.8843 35.1179 29.7828C35.0364 29.5814 34.9549 29.0202 35.1947 28.9403Z" fill="#FFD700"/>
<path d="M26.5306 1.06892C26.9811 1.03509 27.5285 1.42256 27.5961 1.8869C27.6469 2.23593 27.3101 3.34143 26.9227 3.39832C26.4968 3.46136 25.4681 2.76946 25.4097 2.31127C25.3205 1.60399 25.8618 1.11966 26.5306 1.06892Z" fill="#FFD700"/>
<path d="M38.3252 11.8887C37.9085 11.5013 37.335 10.0744 37.6994 9.57163C38.0638 9.34407 38.6158 9.53472 38.7142 9.96524C38.7526 10.1328 38.6927 10.4081 38.7711 10.5218C38.8818 10.6833 39.8397 10.6525 39.9566 11.532C40.0657 12.3408 38.7834 12.3146 38.3252 11.8887Z" fill="#FFD700"/>
<path d="M6.10104 28.7711C7.86155 28.6312 7.30956 30.8837 6.24403 30.9437C5.67975 30.9745 4.78489 29.8889 5.02475 29.3692C5.1539 29.0909 5.80122 28.7957 6.10104 28.7711Z" fill="#FFD700"/>
<path d="M27.2179 40.4428C27.7176 40.9517 27.5485 41.9726 26.8704 42.2694C25.5927 42.8306 24.827 41.1408 25.851 40.4612C26.2354 40.206 26.8612 40.0799 27.2179 40.4412V40.4428Z" fill="#FFD700"/>
<path d="M12.0068 39.3465C12.1452 39.4295 12.5634 39.2419 12.7356 39.6248C12.9724 40.1475 12.4235 40.1906 11.9976 40.2844C11.195 40.4612 9.6159 40.5719 10.048 39.2973C10.1909 38.876 10.9936 38.4624 11.3764 38.6146C11.7593 38.7668 11.9638 39.3219 12.0068 39.3465Z" fill="#FFD700"/>
<path d="M35.7267 12.2885C37.0398 11.9856 38.1361 13.6262 36.2249 14.1013C35.7114 14.2289 35.1163 14.3104 34.9134 13.6769C34.7735 13.2372 35.2716 12.3946 35.7267 12.2885Z" fill="#FFD700"/>
<path d="M4.68956 9.58085C5.05396 9.97754 4.80949 10.6817 4.50198 11.0461C4.23137 11.366 3.07358 12.1286 2.7384 11.6612C2.84602 10.9201 3.26732 9.31639 4.23598 9.3702C4.37282 9.37789 4.60038 9.48245 4.6911 9.58085H4.68956Z" fill="#FFD700"/>
<path d="M3.02438 27.7563C3.38878 28.153 3.14431 28.8572 2.8368 29.2216C2.56619 29.5415 1.40841 30.3041 1.07322 29.8367C1.18085 29.0956 1.60214 27.4919 2.5708 27.5457C2.70765 27.5534 2.9352 27.6579 3.02592 27.7563H3.02438Z" fill="#FFD700"/>
<path d="M30.3776 2.47886C30.5144 2.62801 30.6712 3.24918 30.662 3.45368C30.6051 4.67911 28.84 4.32393 28.6755 3.61358C28.6001 3.28916 28.7216 2.60033 28.9615 2.36662C29.2675 2.06833 30.0977 2.17289 30.3776 2.47886Z" fill="#FFD700"/>
<path d="M11.1842 2.29436C12.5603 2.07141 13.1385 4.07024 11.5748 4.18555C11.1412 4.21784 10.174 3.71967 10.2555 3.21843C10.314 2.86018 10.8198 2.35278 11.1842 2.29436Z" fill="#FFD700"/>
<path d="M40.6377 27.1982C41.4126 27.9731 40.1933 29.8305 39.0848 28.6189C38.1761 27.6257 39.8997 26.4602 40.6377 27.1982Z" fill="#FFD700"/>
<path d="M5.92422 12.3746C7.41719 12.1593 7.43103 14.7271 5.70588 14.2181C4.5235 13.8691 5.07241 12.4976 5.92422 12.3746Z" fill="#FFD700"/>
<path d="M27.6607 5.62471C28.2219 5.45558 29.2767 5.99065 29.2598 6.60414C29.2536 6.81171 29.0214 7.5728 28.8262 7.66813C28.4787 7.83726 27.613 7.32525 27.4685 7.00698C27.3578 6.76404 27.3271 5.72311 27.6592 5.62317L27.6607 5.62471Z" fill="#FFD700"/>
<path d="M28.4541 35.6994C29.4581 35.5256 29.6441 36.4866 29.4012 37.2615C29.2275 37.8181 28.2603 37.8873 28.0389 37.3C27.8221 36.7203 27.6622 35.8378 28.4525 35.7009L28.4541 35.6994Z" fill="#FFD700"/>
<path d="M29.2429 39.0328C30.6359 38.6761 30.9618 40.5043 29.9717 40.8118C28.7216 41.2008 28.3203 39.2681 29.2429 39.0328Z" fill="#FFD700"/>
<path d="M14.5561 39.3249C15.9491 38.9682 16.2751 40.7964 15.2849 41.1039C14.0348 41.4929 13.6335 39.5602 14.5561 39.3249Z" fill="#FFD700"/>
<path d="M27.0534 37.6736C26.9196 37.8089 26.3522 37.8074 26.1508 37.7843C25.1545 37.6675 25.2944 35.97 26.5029 36.0238C27.2194 36.0561 27.4239 37.303 27.0534 37.6736Z" fill="#FFD700"/>
<path d="M36.8691 25.53C37.049 25.4961 37.4457 25.4623 37.5949 25.5515C38.2007 26.3541 37.784 27.9731 36.6001 27.1598C36.025 26.7646 36.1757 25.6622 36.8691 25.53Z" fill="#FFD700"/>
<path d="M35.9866 15.5281C36.1173 15.4835 36.6908 15.4897 36.8445 15.5189C37.7502 15.6865 37.9039 17.4516 36.5001 17.1779C35.9205 17.0657 35.5253 15.6865 35.9866 15.5281Z" fill="#FFD700"/>
<path d="M15.5155 35.9562C16.8578 35.6225 17.2852 38.0872 15.7277 37.8673C14.9113 37.752 15.2249 36.4574 15.5155 35.9562Z" fill="#FFD700"/>
<path d="M13.1953 36.0453C14.9943 35.5041 14.5453 38.4962 13.0723 37.6259C12.5665 37.3277 12.7694 36.1745 13.1953 36.0453Z" fill="#FFD700"/>
<path d="M15.823 5.70774C16.6226 5.43867 17.4421 6.81632 16.4949 7.43288C15.8753 7.83572 15.3987 7.42673 15.3418 6.76866C15.3264 6.59184 15.66 5.76309 15.823 5.70774Z" fill="#FFD700"/>
<path d="M38.1853 32.2783C39.4861 32.02 38.9249 34.6861 37.8532 33.9742C37.1336 33.4961 37.3427 32.4474 38.1853 32.2783Z" fill="#FFD700"/>
<path d="M13.5474 6.06445C13.9995 5.92761 14.5269 6.17977 14.4515 6.69946C14.4208 6.91472 13.5336 7.64199 13.366 7.61124C12.7172 7.33755 13.0262 6.22282 13.5459 6.06599L13.5474 6.06445Z" fill="#FFD700"/>
<path d="M5.65361 15.6296C6.36396 16.4092 5.14775 17.3025 4.50044 16.6521C4.13604 16.2861 5.02936 14.9454 5.65361 15.6296Z" fill="#FFD700"/>
<path d="M39.4061 30.7838C39.6844 30.6869 40.0304 30.7776 40.1795 31.0344C40.5531 31.8632 38.7665 32.6473 38.8203 31.7847C38.8311 31.6218 39.2616 30.833 39.4061 30.7838Z" fill="#FFD700"/>
<path d="M4.69417 26.2234C5.54751 26.0589 5.77507 27.3843 4.92942 27.5242C4.18062 27.6472 3.8685 26.3833 4.69417 26.2234Z" fill="#FFD700"/>
<path d="M0.954821 24.7643C1.45145 24.7366 1.02094 26.4094 0.365936 26.2065C-0.473572 25.9466 0.307508 24.7996 0.954821 24.7643Z" fill="#FFD700"/>
<path d="M42.0461 25.2655C42.5627 25.7268 41.0052 26.2188 40.9221 25.4608C40.8683 24.9687 41.837 25.0779 42.0461 25.2655Z" fill="#FFD700"/>
<path d="M25.8541 6.6518C25.6157 6.29201 26.4353 5.85688 26.6213 6.37043C26.7797 6.92549 25.9217 6.75328 25.8541 6.6518Z" fill="#FFD700"/>
<path d="M32.2334 39.1973C32.3026 39.305 32.2611 39.6217 32.115 39.7093L31.7214 39.3157C31.6845 39.0343 32.1642 39.0882 32.2334 39.1989V39.1973Z" fill="#FFD700"/>
<path d="M6.2548 32.8165C7.62937 31.3173 9.56977 30.8484 11.0674 32.4982C11.85 33.3592 12.0668 34.354 11.7731 35.4857C11.5563 36.3252 10.3247 37.6598 9.51442 37.9611C8.87326 38.1994 7.45717 38.0196 6.87136 37.6598C6.37011 37.3523 5.66437 35.6778 5.59826 35.0751C5.47679 33.9558 5.5306 33.6083 6.2548 32.818V32.8165ZM9.67125 33.5898C8.65339 32.858 7.17272 33.7098 7.34492 34.9045C7.4218 35.4334 8.14446 36.4666 8.74257 36.3205C9.79733 36.0607 10.6584 34.3017 9.67125 33.5914V33.5898Z" fill="url(#paint8_linear_0_2228)"/>
<path d="M14.8313 29.2478C13.3752 27.8963 12.2513 25.1563 11.8623 23.2298C10.7568 17.7545 14.4208 12.8343 19.9299 12.1839C30.6097 10.9231 34.469 25.9328 24.7655 30.5209C21.9979 31.8309 17.1223 31.3758 14.8298 29.2478H14.8313ZM26.3353 26.6985C30.0132 22.3764 27.8329 14.6302 21.6857 14.3703C15.1557 14.0951 12.2682 20.3976 15.1926 25.8605C17.356 29.9012 23.5416 29.9812 26.3353 26.6985Z" fill="#FFD700"/>
<path d="M17.7235 26.0912C15.1019 23.465 14.8528 18.9661 18.3139 16.9673C23.4832 13.9813 28.5479 19.718 25.5988 24.6905C24.0597 27.2843 20.0006 28.3714 17.725 26.0912H17.7235ZM20.8293 18.2573C19.9422 18.3649 19.1503 18.9477 18.6106 19.6334C16.4596 22.3595 19.344 26.9338 22.7697 24.5813C25.5173 22.6947 24.3765 17.8252 20.8293 18.2573Z" fill="url(#paint9_linear_0_2228)"/>
<path d="M20.8262 19.9179C22.9727 19.535 23.1925 22.8454 21.3229 23.0483C19.4532 23.2513 19.0504 20.2346 20.8262 19.9179Z" fill="#FFD700"/>
<path d="M49.7032 28.0285C50.3889 27.2905 51.0224 26.3526 51.6036 25.2163C52.1832 24.0816 52.7245 22.9192 53.2272 21.7322C53.7285 20.5436 54.2036 19.4089 54.6526 18.3265C55.1 17.2456 55.5105 16.3861 55.8795 15.7526C56.4592 14.8024 56.8959 14.0367 57.1865 13.4555C57.4755 12.8758 57.6477 12.453 57.7015 12.1886C57.7538 11.9256 57.6616 11.7534 57.4248 11.6735C57.1865 11.5935 56.7775 11.5551 56.1978 11.5551H52.0003C51.4191 11.5551 51.0501 11.5951 50.8917 11.6735C50.7333 11.7519 50.3628 11.9241 49.7831 12.1886C49.3603 12.453 49.0312 12.6114 48.7929 12.6637C48.5561 12.7175 48.3578 12.7421 48.1994 12.7421C47.7766 12.7421 47.3276 12.5975 46.8525 12.3069C46.3774 12.0179 46.033 11.6612 45.8224 11.2383C45.8224 11.1338 45.8085 10.8693 45.7824 10.4465C45.7547 10.0252 45.7424 9.52396 45.7424 8.94123C45.7424 8.35849 45.7685 7.79267 45.8224 7.23915C45.8746 6.68409 45.953 6.24896 46.0591 5.93222C46.3221 5.03429 46.7188 4.41465 47.2477 4.07024C47.7751 3.72736 48.4869 3.55516 49.3864 3.55516C50.2859 3.55516 51.0224 3.62127 51.6036 3.7535C52.1832 3.88573 53.1611 3.95185 54.5342 3.95185C55.1676 3.95185 55.9195 3.92571 56.7913 3.87189C57.6631 3.81962 58.704 3.7412 59.9202 3.63511C60.3953 3.58283 60.8705 3.54285 61.3456 3.51672C61.8207 3.49058 62.2681 3.47674 62.6925 3.47674C63.7488 3.47674 64.659 3.53055 65.4247 3.63511C66.1889 3.7412 66.7316 3.89957 67.0484 4.11021C67.3113 4.26858 67.4835 4.51921 67.5634 4.86208C67.6434 5.20649 67.708 5.85227 67.7618 6.80248C67.8141 7.70042 67.8279 8.26778 67.8018 8.50456C67.7741 8.74288 67.7095 9.04732 67.6034 9.41479C67.3912 9.94372 67.1283 10.4327 66.8116 10.8801C66.4948 11.3291 66.1381 11.8303 65.743 12.3854C65.3478 12.9404 64.9235 13.5862 64.476 14.3258C64.0271 15.0653 63.5919 15.9894 63.1691 17.098C62.9569 17.7315 62.7601 18.2066 62.5756 18.5233C62.3896 18.84 62.2312 19.1306 62.1005 19.3951C61.9683 19.6596 61.8237 19.9763 61.6654 20.3453C61.507 20.7159 61.2948 21.2694 61.0319 22.0089C60.5568 23.382 60.1078 24.5567 59.685 25.533C59.2622 26.5109 58.9193 27.2105 58.6548 27.6318C58.2843 28.1607 57.903 28.8465 57.5063 29.6906C57.1096 30.5362 56.9389 31.0636 56.9912 31.2743V31.591C58.5226 31.591 59.6835 31.6187 60.4753 31.6694C61.2671 31.7232 61.8868 31.7617 62.3373 31.7878C62.7847 31.8155 63.1153 31.8416 63.3275 31.8662C63.5381 31.8939 63.8026 31.9062 64.1193 31.9062C64.2777 31.9062 64.4622 31.8939 64.6744 31.8662C64.885 31.8401 65.1495 31.8263 65.4662 31.8263H66.5748C67.1022 31.8263 67.4973 31.8662 67.7633 31.9447C68.0263 32.0231 68.2246 32.143 68.3568 32.3014C68.4875 32.4597 68.5952 32.6858 68.6736 32.9748C68.7535 33.2654 68.8181 33.6483 68.8719 34.1234C69.0303 35.0213 69.0826 35.6809 69.0303 36.1038C68.9765 36.5266 68.8181 37.0278 68.5552 37.609C68.0263 38.7714 66.9715 39.3511 65.3878 39.3511C64.965 39.3511 64.5037 39.3111 64.0025 39.2327C63.4997 39.1527 62.96 39.062 62.3788 38.9559C61.5331 38.7453 60.8597 38.6269 60.36 38.5992C59.8572 38.5731 59.1576 38.5592 58.2612 38.5592C57.4156 38.5592 56.7421 38.5869 56.2424 38.6392C55.7396 38.693 55.2522 38.7714 54.7771 38.8775C54.4066 38.9836 53.8269 39.0759 53.035 39.1543C52.2432 39.2342 51.4237 39.2727 50.5796 39.2727C49.8923 39.2727 49.2588 39.2327 48.6791 39.1543C48.0979 39.0759 47.6751 38.9298 47.4122 38.7191C46.9894 38.3501 46.7787 37.8473 46.7787 37.2139C46.7787 36.5804 46.5927 35.9208 46.2237 35.2335C45.8008 34.4416 45.827 33.6237 46.3021 32.778C46.4604 32.5151 46.6711 32.1722 46.9355 31.7478C47.1985 31.3266 47.5029 30.8899 47.8458 30.4409C48.1887 29.9935 48.5315 29.543 48.8759 29.094C49.2188 28.6466 49.4956 28.2899 49.7078 28.0254L49.7032 28.0285Z" fill="url(#paint10_linear_0_2228)"/>
<path d="M89.7766 26.84C89.6182 27.3689 89.3015 27.8578 88.8264 28.3053C88.3513 28.7542 87.7962 29.1509 87.1627 29.4938C86.5292 29.8382 85.8819 30.115 85.2223 30.3256C84.5612 30.5378 83.9677 30.6962 83.4403 30.8007C83.1758 30.8545 82.8068 30.893 82.3317 30.9191C81.8566 30.9468 81.3538 30.9729 80.8264 30.9991C80.2975 31.0267 79.7578 31.0529 79.2028 31.0775C78.6477 31.1051 78.1342 31.1174 77.6591 31.1174C76.8134 31.1174 76.3122 31.0913 76.1538 31.0375C74.6224 30.7208 73.4338 30.2595 72.5897 29.6522C71.7441 29.0464 71.1367 28.4129 70.7677 27.7517C70.3972 27.0921 70.1742 26.4448 70.0943 25.8113C70.0143 25.1779 69.9482 24.6228 69.8959 24.1477C69.7376 22.7224 69.6192 21.6661 69.5392 20.9803C69.4608 20.2946 69.447 19.6334 69.4992 18.9999C69.5515 18.3142 69.6299 17.733 69.736 17.2579C69.8406 16.7828 69.9344 16.3215 70.0128 15.8725C70.0927 15.4251 70.1711 14.95 70.2511 14.4472C70.3295 13.946 70.3956 13.3786 70.4494 12.7451C70.554 11.3721 70.8461 10.2635 71.3212 9.41941C71.7963 8.57529 72.4021 7.91414 73.1433 7.43903C73.8813 6.96392 74.7531 6.63489 75.7571 6.44884C76.7596 6.26434 77.842 6.17208 79.0044 6.17208C80.3775 6.17208 81.6306 6.30431 82.7668 6.56877C83.9016 6.83323 85.2346 7.09769 86.766 7.36061C87.664 7.46671 88.2575 7.71733 88.5481 8.11248C88.8371 8.50917 89.2477 9.31332 89.775 10.528C89.8273 13.0111 89.8673 15.0423 89.8934 16.6259C89.9196 18.2096 89.9595 19.5043 90.0118 20.5067C90.0641 21.5108 90.1164 22.2888 90.1702 22.8438C90.2225 23.3989 90.2363 23.874 90.2102 24.2692C90.1825 24.6658 90.144 25.0349 90.0918 25.3777C90.038 25.7222 89.9334 26.2096 89.775 26.843L89.7766 26.84ZM84.392 38.8791C83.9692 38.8268 83.5864 38.7991 83.2435 38.7991H82.1749C80.4851 38.7991 78.9276 38.8791 77.5022 39.0374C76.0769 39.1958 74.9683 39.2742 74.1765 39.2742C73.1202 39.2742 72.3283 38.6684 71.801 37.4522C71.6949 37.2415 71.6288 37.0432 71.6026 36.8587C71.5749 36.6742 71.5888 36.4236 71.6426 36.1068C71.801 34.946 72.3022 34.0742 73.1479 33.493C73.3062 33.3884 73.9397 33.3085 75.0483 33.2547C76.1569 33.2024 77.3715 33.1501 78.6908 33.0963C80.01 33.044 81.2646 33.0163 82.4532 33.0163H84.7903C86.1095 33.0163 86.9013 33.1224 87.1658 33.3331C87.2703 33.4392 87.4041 33.6636 87.5625 34.0065C87.7209 34.3509 87.8392 34.7323 87.9192 35.1551C87.9992 35.5779 88.0238 36.0392 87.9992 36.5404C87.9715 37.0432 87.8531 37.5045 87.6424 37.9258C87.4303 38.3486 87.2335 38.6269 87.0489 38.7576C86.8629 38.8898 86.5062 38.9559 85.9803 38.9559H85.3069C85.0686 38.9559 84.7641 38.9298 84.3967 38.8775L84.392 38.8791ZM80.1145 23.5142C80.3775 23.5142 80.7203 23.4619 81.1447 23.3558C81.4076 23.2513 81.5921 23.0929 81.6998 22.8807C81.8043 22.6701 81.9104 22.2211 82.0165 21.5338C82.0688 21.2171 82.1211 20.7558 82.1749 20.1485C82.2272 19.5427 82.2794 18.9092 82.3332 18.2481C82.3855 17.5885 82.4132 16.9811 82.4132 16.4261V15.3575C82.3071 14.7778 82.0565 14.2627 81.6613 13.8138C81.2646 13.3663 80.7772 13.1403 80.196 13.1403C79.7209 13.1403 79.3765 13.1941 79.1659 13.2987C78.743 13.457 78.4647 13.8922 78.3341 14.6056C78.2018 15.319 78.0296 15.9402 77.819 16.466C77.7129 16.7828 77.6468 17.2579 77.6206 17.8914C77.5929 18.5248 77.5807 19.1721 77.5807 19.8318C77.5807 20.4914 77.6206 21.1125 77.699 21.6937C77.779 22.2749 77.8697 22.644 77.9758 22.8023C78.1342 23.0668 78.4232 23.2513 78.8476 23.3574C79.2689 23.4635 79.6917 23.5158 80.1145 23.5158V23.5142Z" fill="url(#paint11_linear_0_2228)"/>
<path d="M99.2018 39.3542C98.8851 39.3542 98.5407 39.328 98.1717 39.2742C97.8011 39.2219 97.406 39.1958 96.9831 39.1958C96.7709 39.1958 96.5603 39.2096 96.3497 39.2358C96.1375 39.2634 95.9007 39.3019 95.6362 39.3542C95.3718 39.4602 95.1334 39.5125 94.9228 39.5125H94.2893C92.9686 39.5125 92.1367 38.9329 91.7939 37.7705C91.4495 36.6096 91.3311 35.1305 91.4372 33.3346C91.5417 31.5403 91.7139 29.5722 91.9522 27.435C92.1906 25.2962 92.2029 23.2774 91.9922 21.3755C91.8338 20.0562 91.7662 19.0261 91.7939 18.2865C91.82 17.5485 91.86 16.9012 91.9123 16.3461C91.9645 15.7911 92.0168 15.2375 92.0706 14.6825C92.1229 14.1274 92.1506 13.3755 92.1506 12.4253C92.0445 9.73307 92.0968 8.09711 92.3089 7.51437C92.3612 7.30373 92.5196 7.07924 92.7841 6.84092C93.047 6.60414 93.3114 6.43193 93.5759 6.32584C93.6804 6.27356 93.9587 6.24588 94.4077 6.24588H96.0314C96.8755 6.24588 97.7073 6.25972 98.5268 6.28586C99.3448 6.31354 99.8338 6.37812 99.9921 6.48421C100.255 6.64258 100.52 6.90704 100.784 7.27605C101.047 7.6466 101.259 7.96334 101.417 8.22626C101.68 8.85974 101.985 9.78381 102.328 10.9985C102.671 12.2132 102.921 13.2433 103.08 14.0874C103.342 15.2498 103.555 16.1339 103.713 16.7413C103.871 17.3486 104.03 17.8498 104.188 18.2465C104.347 18.6432 104.531 19.0522 104.743 19.4735C104.954 19.8963 105.218 20.5298 105.535 21.3739C105.798 22.1135 106.022 22.6686 106.208 23.0376C106.393 23.4081 106.696 23.9355 107.119 24.6213C107.752 25.4669 108.121 25.8882 108.227 25.8882C108.386 25.8882 108.516 25.6776 108.624 25.2547C108.729 24.938 108.822 24.3829 108.901 23.5911C108.979 22.7993 109.059 21.9413 109.138 21.0172C109.217 20.0947 109.296 19.1952 109.376 18.325C109.456 17.4532 109.547 16.7551 109.653 16.2262C109.811 15.3282 109.891 14.418 109.891 13.4939V10.8017C109.891 9.92988 109.903 9.16571 109.931 8.50456C109.957 7.84495 110.049 7.356 110.208 7.03927C110.418 6.61797 110.655 6.35351 110.921 6.24742C111.184 6.14287 111.555 6.08905 112.03 6.08905H115.039C115.408 6.08905 115.831 6.06292 116.306 6.01064C116.516 6.01064 116.675 5.99834 116.781 5.97066C116.885 5.94452 116.991 5.93069 117.097 5.93069C117.519 5.93069 117.797 6.07675 117.929 6.36581C118.06 6.65641 118.128 6.98699 118.128 7.356C118.074 7.98948 118.062 8.71674 118.088 9.53472C118.114 10.3542 118.128 11.2122 118.128 12.1086C118.128 13.005 118.114 13.9045 118.088 14.8009C118.06 15.6988 117.995 16.5429 117.889 17.3348C117.783 18.0743 117.717 19.1045 117.691 20.4237C117.663 21.7445 117.651 23.116 117.651 24.5428C117.651 25.9697 117.663 27.3427 117.691 28.662C117.717 29.9827 117.757 31.0114 117.809 31.7509C117.914 33.0717 117.968 34.3125 117.968 35.4734C117.968 36.6342 117.439 37.6121 116.384 38.4039C115.961 38.7207 115.632 38.9329 115.394 39.0374C115.156 39.1435 114.747 39.1958 114.167 39.1958H112.82C111.922 39.1435 111.327 39.0912 111.038 39.0374C110.747 38.9851 110.471 38.9067 110.206 38.7991C109.15 38.2717 108.292 37.4922 107.632 36.462C106.971 35.4318 106.035 34.1526 104.82 32.6212C103.658 31.1959 102.814 30.075 102.286 29.2555C101.757 28.4375 101.362 28.0285 101.098 28.0285C100.833 28.0285 100.701 29.2954 100.701 31.8293C100.647 33.3085 100.647 34.2848 100.701 34.7599C100.753 35.235 100.805 35.6056 100.859 35.8685C101.018 36.3436 101.098 36.8725 101.098 37.4522C101.098 38.0319 101.019 38.4562 100.859 38.7191C100.489 39.142 99.9352 39.3526 99.1957 39.3526L99.2018 39.3542Z" fill="url(#paint12_linear_0_2228)"/>
<path d="M129.93 17.2579C130.088 19.4228 130.377 20.5052 130.802 20.5052C131.012 20.5052 131.329 20.1362 131.752 19.3966C132.279 18.4987 132.768 17.733 133.217 17.0995C133.665 16.466 134.101 15.8987 134.524 15.3974C134.945 14.8962 135.328 14.4349 135.673 14.0121C136.016 13.5908 136.346 13.1403 136.663 12.6652C137.455 11.2922 138.074 10.2374 138.523 9.49782C138.971 8.75979 139.341 8.1909 139.632 7.79574C139.921 7.39905 140.159 7.12229 140.345 6.96392C140.53 6.80555 140.781 6.64719 141.097 6.48882C141.941 6.06753 142.839 5.85534 143.79 5.85534C144.423 5.85534 145.043 6.00141 145.651 6.29047C146.257 6.58107 146.8 6.93778 147.275 7.35908C147.696 7.72963 147.83 8.30929 147.672 9.10113C147.566 9.36559 147.287 9.853 146.84 10.5664C146.391 11.2799 145.876 12.0317 145.296 12.8236C144.821 13.457 144.437 14.1044 144.148 14.764C143.857 15.4251 143.527 16.0847 143.158 16.7443C142.787 17.4055 142.366 18.0651 141.891 18.7247C141.416 19.3859 140.728 20.0055 139.832 20.5852C138.353 21.6937 137.429 22.5133 137.06 23.0406C136.637 23.6218 136.531 23.8725 136.743 23.7925C136.954 23.7141 137.429 23.8064 138.168 24.0693C138.537 24.1754 138.92 24.3737 139.317 24.6628C139.713 24.9534 140.081 25.2563 140.425 25.573C140.768 25.8897 141.085 26.1803 141.376 26.4448C141.665 26.7093 141.917 26.8938 142.127 26.9999C142.496 27.106 142.733 27.2643 142.841 27.475C142.945 27.5288 143.065 27.6872 143.198 27.9501C143.328 28.2145 143.474 28.5174 143.633 28.8603C143.791 29.2047 143.949 29.5614 144.108 29.9289C144.266 30.2995 144.371 30.6162 144.425 30.8791C144.741 31.8293 145.138 32.5812 145.613 33.1363C146.088 33.6913 146.523 34.1787 146.92 34.6016C147.317 35.0244 147.58 35.4472 147.712 35.8685C147.843 36.2913 147.724 36.8187 147.355 37.4522C147.197 37.7167 146.985 37.955 146.722 38.1656C146.457 38.3778 146.088 38.6146 145.613 38.8791C145.243 39.1435 144.926 39.3019 144.663 39.3542C144.398 39.408 144.056 39.4341 143.633 39.4341H142.603C141.652 39.3296 140.979 39.1712 140.584 38.959C140.187 38.7484 139.858 38.3532 139.594 37.7705C138.906 36.3452 138.379 35.1566 138.01 34.2064C137.745 33.5207 137.402 32.9794 136.98 32.5827C136.557 32.1861 136.24 31.7786 136.029 31.3558C135.817 30.7761 135.368 30.3133 134.683 29.9704C133.995 29.6276 133.362 29.4031 132.782 29.297C132.307 29.1386 132.016 29.0587 131.91 29.0587C131.646 29.0587 131.343 29.1248 131 29.257C130.656 29.3892 130.433 29.5876 130.327 29.8505C130.273 30.0627 130.234 30.484 130.208 31.1175C130.181 31.7509 130.194 32.4244 130.248 33.1378C130.3 33.8512 130.367 34.577 130.447 35.3165C130.527 36.0561 130.617 36.6634 130.723 37.1385C130.828 37.6675 130.882 38.0103 130.882 38.1687C130.882 38.3271 130.802 38.4854 130.643 38.6438C130.537 38.6976 130.259 38.7899 129.812 38.9206C129.363 39.0528 128.861 39.1589 128.306 39.2373C127.751 39.3157 127.224 39.3957 126.723 39.4741C126.22 39.554 125.863 39.5925 125.654 39.5925C125.231 39.5925 124.572 39.5125 123.674 39.3542C122.776 39.1435 122.155 38.8391 121.812 38.4439C121.467 38.0472 121.283 37.2954 121.257 36.1868C121.229 35.0782 121.243 33.4822 121.297 31.3957C121.349 29.3108 121.323 26.4725 121.217 22.8823V20.5852C121.217 20.0055 121.229 19.4504 121.257 18.9215C121.283 18.3941 121.323 17.8129 121.375 17.1795C121.427 16.546 121.506 15.6742 121.613 14.5656C121.297 12.7175 121.111 11.2783 121.058 10.2497C121.004 9.21952 121.375 8.22933 122.167 7.27912C122.484 6.85783 122.8 6.59337 123.117 6.48728C123.38 6.38273 123.723 6.30277 124.147 6.24896C124.568 6.19668 124.991 6.17054 125.414 6.17054C125.942 6.17054 126.286 6.19822 126.444 6.24896C126.972 6.35505 127.447 6.42116 127.87 6.4473C128.291 6.47498 128.661 6.55339 128.978 6.68562C129.295 6.81785 129.558 7.03004 129.77 7.3191C129.981 7.6097 130.113 8.07097 130.167 8.70444C130.271 9.33792 130.285 9.86684 130.207 10.2881C130.128 10.711 130.048 11.1722 129.97 11.6735C129.89 12.1763 129.824 12.8497 129.772 13.6938C129.718 14.5395 129.772 15.7265 129.93 17.2579Z" fill="url(#paint13_linear_0_2228)"/>
<path d="M157.571 38.324H156.344C155.947 38.324 155.538 38.3778 155.117 38.4824C154.536 38.5884 153.994 38.6807 153.493 38.7591C152.99 38.8391 152.503 38.8775 152.028 38.8775C151.447 38.8775 150.931 38.7591 150.484 38.5208C150.035 38.284 149.678 37.8212 149.415 37.1355C149.203 36.6081 149.139 35.8685 149.217 34.9183C149.297 33.9681 149.494 32.8856 149.811 31.671C149.915 31.302 149.969 30.8791 149.969 30.404C149.969 29.9289 149.981 29.2293 150.009 28.3053C150.035 27.3827 150.061 26.1404 150.089 24.5828C150.115 23.0268 150.181 20.9788 150.287 18.4449C150.34 17.5469 150.313 16.7028 150.207 15.911C150.101 15.1191 150.009 14.3411 149.931 13.5739C149.852 12.8097 149.798 12.0425 149.772 11.2768C149.744 10.5126 149.812 9.75921 149.971 9.01964C150.075 8.59835 150.181 8.28161 150.287 8.06943C150.392 7.85878 150.512 7.68658 150.644 7.55435C150.775 7.42365 150.947 7.31603 151.159 7.23761C151.37 7.15919 151.634 7.03926 151.951 6.8809C152.162 6.77634 152.348 6.69639 152.506 6.64257C152.664 6.5903 152.903 6.56416 153.219 6.56416C153.378 6.56416 153.562 6.578 153.774 6.60414C153.985 6.63181 154.25 6.64411 154.566 6.64411C155.464 6.69793 156.242 6.7625 156.903 6.84246C157.563 6.92241 158.17 7.01466 158.725 7.11922C159.28 7.22531 159.82 7.31756 160.349 7.39598C160.876 7.47439 161.458 7.51437 162.091 7.51437C162.989 7.51437 163.939 7.40982 164.942 7.19763C165.205 7.14536 165.509 7.09308 165.852 7.03926C166.195 6.98699 166.578 6.96085 167.001 6.96085C167.739 6.96085 168.412 7.03926 169.019 7.19917C169.625 7.35754 170.062 7.64814 170.326 8.07097C170.695 8.75826 170.669 9.89298 170.246 11.4767C170.034 12.2685 169.85 12.7713 169.691 12.9819C169.533 13.1941 169.084 13.457 168.344 13.7738C167.869 13.986 167.142 14.1582 166.166 14.2889C165.188 14.4211 164.198 14.4872 163.195 14.4872C162.825 14.4872 162.469 14.4749 162.126 14.4472C161.782 14.4211 161.479 14.3811 161.216 14.3288C160.952 14.2766 160.609 14.2504 160.186 14.2504C159.553 14.2504 159.13 14.3965 158.919 14.6855C158.707 14.9761 158.602 15.4912 158.602 16.2293C158.602 17.1795 158.733 17.8529 158.999 18.2481C159.262 18.6448 159.446 18.9215 159.554 19.0799C160.134 18.9753 160.675 18.8815 161.178 18.8031C161.679 18.7232 162.22 18.6847 162.801 18.6847C163.17 18.7386 163.461 18.7647 163.673 18.7647C163.885 18.7647 164.042 18.8431 164.148 19.003C164.253 19.1614 164.319 19.4658 164.347 19.9133C164.373 20.3622 164.359 21.0618 164.307 22.012C164.253 23.1744 164.174 24.0985 164.068 24.7842C163.962 25.4715 163.407 25.8144 162.405 25.8144C162.034 25.8144 161.744 25.7883 161.533 25.7344C161.268 25.6822 161.004 25.6422 160.741 25.6161C160.477 25.5899 160.266 25.5761 160.108 25.5761C159.737 25.5761 159.328 25.6683 158.881 25.8528C158.432 26.0389 158.18 26.2357 158.129 26.4463C158.129 26.5002 158.115 26.8031 158.089 27.3566C158.061 27.9116 158.061 28.519 158.089 29.1786C158.115 29.8397 158.181 30.4455 158.287 31.0006C158.392 31.5557 158.576 31.8601 158.842 31.9108H161.258C162.076 31.9108 162.881 31.8847 163.673 31.8309C164.465 31.7786 165.139 31.7525 165.694 31.7525H167.079C167.923 31.7525 168.438 31.7924 168.623 31.8708C168.807 31.9508 168.979 32.1215 169.138 32.3859C169.348 32.6504 169.494 33.0594 169.573 33.6129C169.653 34.168 169.639 34.6031 169.533 34.9198C169.268 36.1868 168.529 37.1508 167.316 37.8104C166.101 38.4716 164.886 38.8006 163.673 38.8006C162.775 38.8006 161.837 38.7207 160.861 38.5623C159.883 38.4039 158.788 38.324 157.574 38.324H157.571Z" fill="url(#paint14_linear_0_2228)"/>
</g>
<defs>
<linearGradient id="paint0_linear_0_2228" x1="7.34646" y1="21.6492" x2="34.2999" y2="21.6492" gradientUnits="userSpaceOnUse">
<stop stop-color="#FF8500"/>
<stop offset="0.28" stop-color="#FE7706"/>
<stop offset="0.81" stop-color="#FA5117"/>
<stop offset="1" stop-color="#F9421E"/>
</linearGradient>
<linearGradient id="paint1_linear_0_2228" x1="35.4823" y1="21.4508" x2="41.96" y2="21.4508" gradientUnits="userSpaceOnUse">
<stop stop-color="#FCEE21"/>
<stop offset="1" stop-color="#EB7FDC"/>
</linearGradient>
<linearGradient id="paint2_linear_0_2228" x1="17.8588" y1="3.52748" x2="24.3442" y2="3.52748" gradientUnits="userSpaceOnUse">
<stop stop-color="#FCEE21"/>
<stop offset="1" stop-color="#EB7FDC"/>
</linearGradient>
<linearGradient id="paint3_linear_0_2228" x1="17.8649" y1="39.5048" x2="24.2765" y2="39.5048" gradientUnits="userSpaceOnUse">
<stop stop-color="#FCEE21"/>
<stop offset="1" stop-color="#EB7FDC"/>
</linearGradient>
<linearGradient id="paint4_linear_0_2228" x1="0.0307483" y1="21.3739" x2="6.38241" y2="21.3739" gradientUnits="userSpaceOnUse">
<stop stop-color="#FCEE21"/>
<stop offset="1" stop-color="#EB7FDC"/>
</linearGradient>
<linearGradient id="paint5_linear_0_2228" x1="30.4391" y1="8.09403" x2="36.3971" y2="8.09403" gradientUnits="userSpaceOnUse">
<stop stop-color="#3CCE92"/>
<stop offset="0.15" stop-color="#38C090"/>
<stop offset="0.42" stop-color="#2D9A8B"/>
<stop offset="0.8" stop-color="#1B5D83"/>
<stop offset="1" stop-color="#113B7F"/>
</linearGradient>
<linearGradient id="paint6_linear_0_2228" x1="30.4544" y1="34.6784" x2="36.5109" y2="34.6784" gradientUnits="userSpaceOnUse">
<stop stop-color="#3CCE92"/>
<stop offset="0.15" stop-color="#38C090"/>
<stop offset="0.42" stop-color="#2D9A8B"/>
<stop offset="0.8" stop-color="#1B5D83"/>
<stop offset="1" stop-color="#113B7F"/>
</linearGradient>
<linearGradient id="paint7_linear_0_2228" x1="5.76893" y1="8.13708" x2="11.6778" y2="8.13708" gradientUnits="userSpaceOnUse">
<stop stop-color="#3CCE92"/>
<stop offset="0.15" stop-color="#38C090"/>
<stop offset="0.42" stop-color="#2D9A8B"/>
<stop offset="0.8" stop-color="#1B5D83"/>
<stop offset="1" stop-color="#113B7F"/>
</linearGradient>
<linearGradient id="paint8_linear_0_2228" x1="5.54752" y1="34.763" x2="11.8976" y2="34.763" gradientUnits="userSpaceOnUse">
<stop stop-color="#3CCE92"/>
<stop offset="0.15" stop-color="#38C090"/>
<stop offset="0.42" stop-color="#2D9A8B"/>
<stop offset="0.8" stop-color="#1B5D83"/>
<stop offset="1" stop-color="#113B7F"/>
</linearGradient>
<linearGradient id="paint9_linear_0_2228" x1="15.7354" y1="21.7399" x2="26.4691" y2="21.7399" gradientUnits="userSpaceOnUse">
<stop stop-color="#FF8500"/>
<stop offset="0.28" stop-color="#FE7706"/>
<stop offset="0.81" stop-color="#FA5117"/>
<stop offset="1" stop-color="#F9421E"/>
</linearGradient>
<linearGradient id="paint10_linear_0_2228" x1="45.7424" y1="21.4154" x2="69.0472" y2="21.4154" gradientUnits="userSpaceOnUse">
<stop stop-color="#FF8500"/>
<stop offset="0.28" stop-color="#FE7706"/>
<stop offset="0.81" stop-color="#FA5117"/>
<stop offset="1" stop-color="#F9421E"/>
</linearGradient>
<linearGradient id="paint11_linear_0_2228" x1="69.47" y1="22.7224" x2="90.2255" y2="22.7224" gradientUnits="userSpaceOnUse">
<stop stop-color="#FF8500"/>
<stop offset="0.28" stop-color="#FE7706"/>
<stop offset="0.81" stop-color="#FA5117"/>
<stop offset="1" stop-color="#F9421E"/>
</linearGradient>
<linearGradient id="paint12_linear_0_2228" x1="91.4018" y1="22.7224" x2="118.131" y2="22.7224" gradientUnits="userSpaceOnUse">
<stop stop-color="#FF8500"/>
<stop offset="0.28" stop-color="#FE7706"/>
<stop offset="0.81" stop-color="#FA5117"/>
<stop offset="1" stop-color="#F9421E"/>
</linearGradient>
<linearGradient id="paint13_linear_0_2228" x1="121.055" y1="22.7224" x2="147.763" y2="22.7224" gradientUnits="userSpaceOnUse">
<stop stop-color="#FF8500"/>
<stop offset="0.28" stop-color="#FE7706"/>
<stop offset="0.81" stop-color="#FA5117"/>
<stop offset="1" stop-color="#F9421E"/>
</linearGradient>
<linearGradient id="paint14_linear_0_2228" x1="149.182" y1="22.7224" x2="170.58" y2="22.7224" gradientUnits="userSpaceOnUse">
<stop stop-color="#FF8500"/>
<stop offset="0.28" stop-color="#FE7706"/>
<stop offset="0.81" stop-color="#FA5117"/>
<stop offset="1" stop-color="#F9421E"/>
</linearGradient>
<clipPath id="clip0_0_2228">
<rect width="170.58" height="42.572" fill="white" transform="translate(0 0.247864)"/>
</clipPath>
</defs>
</svg>
